<svg width="398" height="529" viewBox="0 0 398 529" fill="none" xmlns="http://www.w3.org/2000/svg">
<g clip-path="url(#clip0_888_194)">
<rect width="398" height="529" fill="#1D1514"/>
<path d="M130.6 387V163.5H279.1V199.5H171.4V256.8H273.1V292.8H171.4V351H279.1V387H130.6Z" fill="#FDF2E2"/>
<path d="M79.8874 222.555C81.1913 222.932 82.3572 222.839 83.6765 222.957C83.9878 222.985 84.187 223.569 84.2077 223.853L84.289 223.944C84.3318 223.759 84.4008 223.311 84.5051 223.204L84.6487 223.309C84.6972 224.062 84.736 224.856 84.8146 225.602C84.8369 226.104 84.6699 227.076 84.6131 227.595C84.2763 230.672 82.869 234.772 80.9199 237.229C78.7773 239.784 75.6299 241.297 72.3365 241.629C71.1816 241.745 67.5507 241.532 66.7707 240.746C63.2719 237.221 65.6915 230.525 68.464 227.309C70.2297 225.261 74.9888 223.093 77.6417 222.863C78.6817 222.946 78.8768 222.944 79.8874 222.555Z" fill="#2A1E1B"/>
<path d="M18.5779 295.932L18.9958 295.913C23.0075 295.752 28.5086 296.98 32.0733 298.909C32.5656 299.176 33.3765 299.539 33.773 299.905C33.8851 300.433 33.7445 300.985 33.4079 301.458C31.2491 304.493 28.7649 306.21 25.5357 307.937C25.1353 308.151 23.63 308.498 23.1671 308.61C22.7171 308.773 21.8635 308.919 21.3722 308.947C17.6153 309.13 13.0304 308.96 9.99796 306.427C7.58023 304.375 7.87947 302.009 9.83654 299.821C11.8407 297.58 15.663 296.152 18.5779 295.932Z" fill="#2A1E1B"/>
<path d="M74.0161 247.066C76.3917 247.003 77.9551 247.049 80.3124 247.537C80.0894 249.168 80.0034 249.46 79.3959 250.956C76.5341 257.999 70.2451 262.862 62.299 261.376C60.2781 261.114 58.2011 259.823 56.6067 258.613C54.7565 257.208 55.9116 255.102 57.1528 253.729C61.5835 248.827 67.6636 247.456 74.0161 247.066Z" fill="#2A1E1B"/>
<path d="M55.0467 228.127C56.9054 228.391 56.8633 227.317 59.1388 227.907L59.4022 227.669L59.6621 227.804C60.8798 235.508 58.9165 245.884 52.2712 250.689C51.2827 251.403 50.0018 251.656 48.8667 250.818C44.2302 246.112 44.2669 238.322 48.3911 233.295C49.8732 231.489 52.7343 228.731 55.0467 228.127Z" fill="#2A1E1B"/>
<path d="M6.21692 274.495C7.0849 274.928 7.39994 274.691 7.87157 274.877C10.3383 279.261 11.7323 286.547 10.6888 291.366C10.0651 294.247 6.48598 300.787 3.06234 299.1C-4.96399 295.144 -2.45686 280.02 3.71996 275.762C4.30319 275.784 5.69712 274.866 6.21692 274.495Z" fill="#2A1E1B"/>
<path d="M20.029 259.527C21.4071 259.787 23.9889 263.344 25.2453 264.273C25.6172 264.625 26.5927 265.596 26.6675 266.081C27.238 269.776 27.5619 274.442 25.8817 277.887C25.0465 279.599 23.5859 281.313 22.2241 282.581C22.0529 282.74 21.2441 283.026 20.9984 283.114C19.6862 283.423 18.3911 282.775 17.2534 282.211C13.9865 277.246 12.9517 271.099 15.4414 265.538C16.184 263.879 18.3581 260.186 20.029 259.527Z" fill="#2A1E1B"/>
<path d="M35.1548 279.797C36.4895 279.797 39.4024 279.911 40.5572 280.201C41.7082 280.491 46.7097 285.431 47.2426 286.372C47.2891 286.866 47.2455 287.273 46.9047 287.659C44.0335 290.911 40.1136 292.456 35.8958 292.798C32.1828 292.85 22.1407 291.559 24.1725 285.44C24.7198 283.792 26.7996 283.048 27.8661 281.506C31.1818 280.118 31.5826 280.01 35.1548 279.797Z" fill="#2A1E1B"/>
<path d="M77.6417 222.863C79.0496 222.381 83.502 221.697 84.8086 222.147C85.1749 222.501 84.9221 225.02 84.8146 225.602C84.736 224.856 84.6972 224.062 84.6487 223.309L84.5051 223.204C84.4008 223.311 84.3318 223.759 84.289 223.944L84.2077 223.853C84.187 223.569 83.9878 222.985 83.6765 222.957C82.3572 222.839 81.1913 222.932 79.8874 222.555C78.8768 222.944 78.6817 222.946 77.6417 222.863Z" fill="#2A1E1B"/>
<path d="M55.0467 228.127C56.2811 227.484 58.0861 226.414 59.4846 226.915C59.7469 227.24 59.655 227.278 59.6621 227.804L59.4022 227.669L59.1388 227.907C56.8633 227.317 56.9054 228.391 55.0467 228.127Z" fill="#2A1E1B"/>
<path d="M5.35288 273.96C6.69502 273.668 7.4062 273.292 7.87157 274.877C7.39994 274.691 7.0849 274.928 6.21692 274.495C5.69712 274.866 4.30319 275.784 3.71996 275.762C4.38373 275.15 4.77602 274.662 5.35288 273.96Z" fill="#2A1E1B"/>
<path d="M29 257.684L29.2765 247.652C30.1217 248.463 30.9353 249.132 31.4865 249.29C31.8693 249.044 31.812 248.328 32.0573 247.949C33.1772 246.219 37.3637 239.766 39.8423 241.208C42.3984 246.246 43.6154 250.588 43.2052 256.36C43.0898 257.983 42.5961 259.511 42.4986 261.161C44.0289 262.158 44.7285 263.375 45.8885 264.235C47.3675 264.716 49.9985 263.818 51.3895 263.786C55.0516 263.7 64.0173 264.869 66 268.216C64.5585 271.06 60.2457 274.666 57.3808 275.759C57.4476 275.818 57.5131 275.879 57.5776 275.94L48.2242 277L29 257.684Z" fill="#2A1E1B"/>
<rect x="-2.63959" y="215.756" width="127.115" height="8.99496" rx="2" transform="rotate(45 -2.63959 215.756)" fill="#2A1E1B"/>
</g>
<defs>
<clipPath id="clip0_888_194">
<rect width="398" height="529" fill="white"/>
</clipPath>
</defs>
</svg>
