<svg width="336" height="344" viewBox="0 0 336 344" fill="none" xmlns="http://www.w3.org/2000/svg">
<path d="M64.9675 101.146C119.334 76.6147 136.375 92.5591 138.416 103.819M264.513 103.169C213.349 79.9527 197.105 95.5226 195.078 106.426M73.9593 167.524C114.905 270.045 236.996 254.856 260.819 172.012M235.325 214C237.21 218.586 265.273 251.094 243.978 262.446C222.684 273.798 195.513 241.198 192.271 237.048M329 172C329 263.127 256.918 337 168 337C79.0822 337 7 263.127 7 172C7 80.8731 79.0822 7 168 7C256.918 7 329 80.8731 329 172Z" stroke="#2A1E1B" stroke-width="14" stroke-linecap="round"/>
</svg>
