<svg width="398" height="529" viewBox="0 0 398 529" fill="none" xmlns="http://www.w3.org/2000/svg">
<g clip-path="url(#clip0_888_192)">
<rect width="398" height="529" fill="#1D1514"/>
<path d="M109.6 387V163.5H150.4V261H245.5V163.5H286.6V387H245.5V297H150.4V387H109.6Z" fill="#FDF2E2"/>
<path d="M167.225 540.338C166.885 535.894 168.503 532.969 170.02 528.969C171.048 526.257 171.904 523.469 173.08 520.801C173.789 519.192 176.63 514.406 175.207 512.83C170.565 507.689 166.809 500.565 166.779 493.327C165.696 473.929 179.291 458.583 196.113 452.936C200.057 451.612 204.47 450.138 208.654 449.966C210.272 450.048 211.875 450.366 213.493 450.399C216.074 450.451 236.528 449.959 237.356 450.859C237.853 451.399 237.923 452.428 238.055 453.133C238.06 452.635 238.029 451.132 238.172 450.762L238.417 450.842C238.682 451.61 238.267 452.693 238.487 453.168L238.663 453.045C238.687 452.615 238.7 452.24 238.701 451.809L238.709 452.049L238.846 452.111L238.903 452.355C239.034 456.763 238.819 461.215 238.931 465.624C239.404 484.263 237.825 506.269 222.251 518.322C214.583 524.256 200.611 527.332 191.396 524.088C197.144 511.043 204.505 498.853 213.29 487.832C214.496 486.314 216.375 484.133 217.663 482.726C219.506 480.794 221.987 478.549 223.515 476.375C225.512 473.534 223.534 469.604 220.285 469.264C216.988 468.919 213.496 473.667 211.444 475.917C207.12 480.695 203.085 485.753 199.362 491.061C197.973 493.071 196.775 495.274 195.235 497.238C194.564 498.093 193.741 499.995 193.11 501.014C192.211 502.465 191.151 504.101 190.354 505.605C187.282 511.42 184.425 517.358 181.79 523.404C180.196 527.101 179.043 531.162 177.37 534.878C176.613 536.559 176.297 538.659 175.433 540.447C174.364 542.659 173.092 543.227 170.707 542.925C168.997 542.639 168.184 541.759 167.225 540.338Z" fill="#2A1E1B"/>
<path d="M133.972 479.617C133.596 478.375 132.825 476.883 132.552 475.652C129.601 462.387 131.174 448.164 134.626 435.174C135.073 433.493 135.583 431.726 135.836 430.008C139.458 429.858 144.291 431.777 147.815 432.754C158.041 435.587 168.49 439.696 176.874 446.608C177.611 447.216 179.286 448.504 179.765 449.2C180.339 449.831 180.339 450.644 179.036 451.369C173.476 454.807 168.124 460.14 165.141 466.201C164.713 467.207 164.441 467.414 163.835 466.476L162.595 464.698C161.36 462.245 159.77 460.016 158.519 457.563C158.13 456.8 157.562 455.808 157.022 455.168C156.522 454.58 155.895 454.126 155.195 453.844C153.182 453.02 150.11 453.935 149.401 456.255C148.224 460.107 151.431 462.864 152.944 466.08C153.488 466.941 154.274 468.757 154.832 469.757C156.171 472.154 158.29 475.709 158.88 478.404C159.304 480.346 158.148 484.609 157.952 486.901C157.633 490.653 157.646 496.877 158.403 500.504C157.793 500.51 156.893 500.52 156.303 500.397C145.925 498.231 137.187 490.25 133.972 479.617Z" fill="#2A1E1B"/>
<path d="M164.301 466.693C164.308 466.666 164.326 466.652 164.366 466.664L165.066 466.355C165.091 466.304 165.116 466.252 165.141 466.201L163.835 466.476L164.061 466.799C164.067 466.797 164.073 466.795 164.078 466.792L164.301 466.693Z" fill="#2A1E1B"/>
<path d="M208.654 449.966C214.917 449.055 221.149 449.419 227.443 449.399C231.208 449.387 235.189 449.542 238.927 449.178C238.755 450.254 238.848 451.267 238.903 452.355L238.846 452.111L238.709 452.049L238.701 451.809C238.7 452.24 238.687 452.615 238.663 453.045L238.487 453.168C238.267 452.693 238.682 451.61 238.417 450.842L238.172 450.762C238.029 451.132 238.06 452.635 238.055 453.133C237.923 452.428 237.853 451.399 237.356 450.859C236.528 449.959 216.074 450.451 213.493 450.399C211.875 450.366 210.272 450.048 208.654 449.966Z" fill="#2A1E1B"/>
</g>
<defs>
<clipPath id="clip0_888_192">
<rect width="398" height="529" fill="white"/>
</clipPath>
</defs>
</svg>
