<svg width="592" height="344" viewBox="0 0 592 344" fill="none" xmlns="http://www.w3.org/2000/svg">
<path fill-rule="evenodd" clip-rule="evenodd" d="M295.604 0C451.315 0.000138133 577.545 126.229 577.545 281.94C577.545 338.428 605.908 302.994 581.778 338.343C579.255 342.039 574.688 343.865 570.319 342.896L459.707 318.344C453.791 317.031 450.093 311.184 450.964 305.188C452.042 297.776 452.6 290.195 452.6 282.484C452.6 196.078 382.554 126.032 296.148 126.031C209.741 126.031 139.695 196.078 139.695 282.484C139.695 289.048 140.098 295.518 140.883 301.87C141.598 307.659 138.076 313.247 132.418 314.668L21.1137 342.629C16.6385 343.753 11.8939 341.919 9.32369 338.087C-13.9418 303.399 13.6635 337.612 13.6635 281.94C13.6638 126.229 139.893 0.000247462 295.604 0ZM26.6635 277C24.4544 277 22.6635 278.791 22.6635 281V289.71C22.6635 291.919 24.4544 293.71 26.6635 293.71H116.664C118.873 293.71 120.664 291.919 120.664 289.71V281C120.664 278.791 118.873 277 116.664 277H26.6635ZM474.673 277C472.464 277 470.673 278.791 470.673 281V289.71C470.673 291.919 472.464 293.71 474.673 293.71H564.673C566.882 293.71 568.673 291.919 568.673 289.71V281C568.673 278.791 566.882 277 564.673 277H474.673ZM64.8491 155.556C62.814 154.696 60.4672 155.65 59.6079 157.685L56.2192 165.712C55.3601 167.747 56.3132 170.093 58.3481 170.952L141.26 205.961C143.295 206.82 145.642 205.866 146.501 203.831L149.89 195.805C150.749 193.77 149.796 191.424 147.761 190.564L64.8491 155.556ZM539.718 157.685C538.859 155.65 536.512 154.696 534.477 155.556L451.565 190.564C449.53 191.424 448.577 193.77 449.436 195.805L452.825 203.831C453.684 205.866 456.031 206.82 458.066 205.961L540.978 170.952C543.013 170.093 543.966 167.747 543.107 165.712L539.718 157.685ZM154.63 54.6191C152.961 53.1726 150.434 53.3538 148.988 55.0234L143.283 61.6084C141.836 63.2779 142.017 65.8034 143.686 67.25L211.706 126.185C213.376 127.631 215.902 127.451 217.349 125.781L223.054 119.196C224.501 117.527 224.319 115 222.65 113.554L154.63 54.6191ZM450.349 55.0234C448.903 53.3539 446.376 53.1727 444.707 54.6191L376.686 113.554C375.016 115 374.836 117.527 376.283 119.196L381.988 125.781C383.434 127.451 385.961 127.631 387.63 126.185L455.65 67.25C457.319 65.8035 457.5 63.278 456.054 61.6084L450.349 55.0234ZM295.664 7C293.454 7 291.664 8.79086 291.664 11V101C291.664 103.209 293.454 105 295.664 105H308.375V11C308.375 8.79086 306.585 7 304.375 7H295.664Z" fill="#2A1E1B"/>
<path d="M269.226 216.776C275.024 205.054 287.615 197.527 301.411 198.825C319.282 200.506 332.406 216.355 330.724 234.226C329.043 252.096 313.194 265.22 295.323 263.539C281.527 262.241 270.561 252.499 267.051 239.901L170.432 219.147L269.226 216.776Z" fill="#2A1E1B"/>
</svg>
