<svg width="398" height="529" viewBox="0 0 398 529" fill="none" xmlns="http://www.w3.org/2000/svg">
<g clip-path="url(#clip0_888_200)">
<rect width="398" height="529" fill="#1D1514"/>
<path d="M86.6 387V163.5H125.6L209.3 277.2H190.7L272.6 163.5H311.6V387H270.5V210L286.4 213.9L201.5 327H196.7L113.9 213.9L127.4 210V387H86.6Z" fill="#FDF2E2"/>
<path d="M317.113 23.5551C315.809 23.9323 314.643 23.8392 313.324 23.9572C313.012 23.985 312.813 24.5687 312.792 24.8526L312.711 24.9439C312.668 24.7587 312.599 24.3114 312.495 24.2042L312.351 24.3093C312.303 25.0616 312.264 25.8564 312.185 26.6019C312.163 27.1044 312.33 28.0761 312.387 28.5948C312.724 31.6723 314.131 35.7723 316.08 38.2286C318.223 40.784 321.37 42.2971 324.663 42.629C325.818 42.7455 329.449 42.5316 330.229 41.7459C333.728 38.2215 331.309 31.5247 328.536 28.3093C326.77 26.2615 322.011 24.0927 319.358 23.8626C318.318 23.946 318.123 23.9444 317.113 23.5551Z" fill="#2A1E1B"/>
<path d="M378.422 96.9318L378.004 96.9132C373.993 96.7521 368.491 97.9798 364.927 99.9093C364.434 100.176 363.624 100.539 363.227 100.905C363.115 101.433 363.255 101.985 363.592 102.458C365.751 105.493 368.235 107.21 371.464 108.937C371.865 109.151 373.37 109.498 373.833 109.61C374.283 109.773 375.136 109.919 375.628 109.947C379.385 110.13 383.97 109.96 387.002 107.427C389.42 105.375 389.121 103.009 387.163 100.821C385.159 98.5795 381.337 97.1523 378.422 96.9318Z" fill="#2A1E1B"/>
<path d="M322.984 48.0657C320.608 48.0033 319.045 48.0487 316.688 48.5368C316.911 50.1678 316.997 50.4603 317.604 51.9556C320.466 58.9986 326.755 63.8615 334.701 62.3755C336.722 62.1142 338.799 60.823 340.393 59.6126C342.244 58.2081 341.088 56.102 339.847 54.7288C335.417 49.8269 329.336 48.4557 322.984 48.0657Z" fill="#2A1E1B"/>
<path d="M341.953 29.1273C340.095 29.3912 340.137 28.3168 337.861 28.907L337.598 28.6691L337.338 28.8035C336.12 36.5082 338.083 46.8841 344.729 51.6885C345.717 52.4031 346.998 52.6564 348.133 51.818C352.77 47.1118 352.733 39.322 348.609 34.295C347.127 32.4885 344.266 29.7315 341.953 29.1273Z" fill="#2A1E1B"/>
<path d="M390.783 75.4951C389.915 75.9276 389.6 75.6913 389.128 75.8774C386.662 80.2605 385.268 87.5472 386.311 92.3663C386.935 95.2468 390.514 101.787 393.938 100.1C401.964 96.1441 399.457 81.02 393.28 76.7624C392.697 76.7844 391.303 75.8663 390.783 75.4951Z" fill="#2A1E1B"/>
<path d="M376.971 60.5274C375.593 60.7872 373.011 64.3439 371.755 65.2726C371.383 65.6249 370.407 66.5965 370.333 67.0808C369.762 70.7763 369.438 75.4418 371.118 78.8867C371.953 80.5988 373.414 82.3128 374.776 83.581C374.947 83.7405 375.756 84.0261 376.002 84.114C377.314 84.4234 378.609 83.7752 379.747 83.211C383.014 78.2465 384.048 72.099 381.559 66.538C380.816 64.8793 378.642 61.1856 376.971 60.5274Z" fill="#2A1E1B"/>
<path d="M361.845 80.797C360.511 80.7967 357.598 80.9109 356.443 81.2015C355.292 81.4911 350.29 86.4313 349.757 87.3719C349.711 87.8663 349.754 88.2727 350.095 88.6587C352.967 91.9111 356.886 93.4562 361.104 93.7983C364.817 93.8501 374.859 92.5587 372.828 86.4402C372.28 84.7919 370.2 84.0481 369.134 82.5064C365.818 81.1185 365.417 81.0097 361.845 80.797Z" fill="#2A1E1B"/>
<path d="M319.358 23.8626C317.95 23.3806 313.498 22.697 312.191 23.1466C311.825 23.5013 312.078 26.0198 312.185 26.6019C312.264 25.8564 312.303 25.0616 312.351 24.3093L312.495 24.2042C312.599 24.3114 312.668 24.7587 312.711 24.9439L312.792 24.8526C312.813 24.5687 313.012 23.985 313.324 23.9572C314.643 23.8392 315.809 23.9323 317.113 23.5551C318.123 23.9444 318.318 23.946 319.358 23.8626Z" fill="#2A1E1B"/>
<path d="M341.953 29.1273C340.719 28.4841 338.914 27.4138 337.515 27.9147C337.253 28.2405 337.345 28.278 337.338 28.8035L337.598 28.6691L337.861 28.907C340.137 28.3168 340.095 29.3912 341.953 29.1273Z" fill="#2A1E1B"/>
<path d="M391.647 74.9602C390.305 74.6677 389.594 74.292 389.128 75.8774C389.6 75.6913 389.915 75.9276 390.783 75.4951C391.303 75.8663 392.697 76.7844 393.28 76.7624C392.616 76.1503 392.224 75.6621 391.647 74.9602Z" fill="#2A1E1B"/>
<path d="M368 58.6843L367.724 48.652C366.878 49.4633 366.065 50.1316 365.513 50.2901C365.131 50.0438 365.188 49.3278 364.943 48.9491C363.823 47.2194 359.636 40.7662 357.158 42.2084C354.602 47.2459 353.385 51.5878 353.795 57.3603C353.91 58.9833 354.404 60.511 354.501 62.1612C352.971 63.1584 352.272 64.3753 351.112 65.2348C349.632 65.7161 347.002 64.8179 345.611 64.7855C341.948 64.7002 332.983 65.8691 331 69.2161C332.441 72.0602 336.754 75.6661 339.619 76.7592C339.552 76.8185 339.487 76.8789 339.422 76.9404L348.776 78L368 58.6843Z" fill="#2A1E1B"/>
<rect width="127.115" height="8.99496" rx="2" transform="matrix(-0.707107 0.707107 0.707107 0.707107 399.64 16.7559)" fill="#2A1E1B"/>
</g>
<defs>
<clipPath id="clip0_888_200">
<rect width="398" height="529" fill="white"/>
</clipPath>
</defs>
</svg>
