<svg width="404" height="414" viewBox="0 0 404 414" fill="none" xmlns="http://www.w3.org/2000/svg">
<path d="M118.499 167.227C118.127 167.989 118.276 168.904 118.871 169.508L349.136 403.202C343.25 409.726 334.718 413.999 324.705 413.999H33.0489C7.64273 413.999 -8.23381 386.493 4.47371 364.494L118.912 166.38L118.499 167.227ZM117.685 0.475967C159.396 -0.504728 211.117 0.228136 243.607 0.902724C261.058 1.26515 274.841 15.6578 274.782 33.1127C274.772 36.295 274.766 39.5231 274.768 42.6918C274.774 55.5397 264.382 66.1804 251.534 66.183C238.979 66.1858 228.802 76.3648 228.802 88.9203V140.154C228.802 145.949 230.328 151.642 233.227 156.66L321.627 309.697L402.567 390.637C403.348 391.418 403.348 392.684 402.567 393.465L386.601 409.432C385.82 410.213 384.553 410.213 383.772 409.432L1.15145 26.8119C0.370397 26.0309 0.370397 24.7639 1.15145 23.9828L17.1182 8.01601C17.8993 7.23496 19.1663 7.23496 19.9473 8.01601L127.724 115.792L126.6 85.435C126.202 74.6919 117.377 66.1879 106.627 66.1879C95.5888 66.1878 86.6407 57.2388 86.6407 46.2006V32.7728C86.6409 15.3102 100.227 0.886432 117.685 0.475967Z" fill="#2A1E1B"/>
</svg>
