<svg width="375" height="375" viewBox="0 0 375 375" fill="none" xmlns="http://www.w3.org/2000/svg">
<path d="M126.055 358.496C124.964 344.3 130.149 334.954 135.008 322.176C138.303 313.512 141.044 304.605 144.812 296.081C147.083 290.941 156.185 275.652 151.625 270.616C136.754 254.192 124.722 231.434 124.626 208.311C121.157 146.338 164.709 97.3127 218.602 79.2733C231.237 75.0439 245.376 70.3347 258.78 69.7838C263.964 70.047 269.1 71.0642 274.284 71.1679C282.553 71.3338 348.08 69.7615 350.734 72.6384C352.325 74.3637 352.548 77.6499 352.974 79.9028C352.988 78.3132 352.888 73.5118 353.346 72.3287L354.133 72.5835C354.98 75.037 353.651 78.4977 354.357 80.0161L354.919 79.621C354.996 78.2474 355.038 77.0487 355.042 75.6733L355.067 76.4407L355.507 76.6367L355.69 77.416C356.109 91.5004 355.419 105.723 355.778 119.809C357.295 179.354 352.235 249.655 302.34 288.161C277.775 307.119 233.013 316.945 203.492 306.581C221.905 264.908 245.489 225.963 273.633 190.756C277.498 185.904 283.517 178.939 287.642 174.444C293.546 168.271 301.495 161.098 306.391 154.153C312.789 145.077 306.451 132.523 296.043 131.436C285.482 130.334 274.292 145.502 267.719 152.69C253.866 167.955 240.938 184.114 229.01 201.07C224.563 207.493 220.724 214.53 215.789 220.805C213.642 223.535 211.004 229.613 208.982 232.867C206.102 237.502 202.704 242.731 200.154 247.535C190.312 266.112 181.159 285.08 172.715 304.397C167.609 316.207 163.914 329.182 158.556 341.053C156.132 346.424 155.119 353.13 152.351 358.844C148.926 365.912 144.85 367.725 137.211 366.76C131.732 365.847 129.127 363.037 126.055 358.496Z" fill="#2A1E1B"/>
<path d="M19.5204 164.51C18.3177 160.544 15.8482 155.775 14.9708 151.843C5.51664 109.466 10.559 64.0269 21.6171 22.5287C23.0474 17.16 24.6814 11.5126 25.4925 6.02648C37.0961 5.54776 52.5816 11.6784 63.8708 14.7974C96.6303 23.8489 130.108 36.9763 156.968 59.0579C159.329 60.9997 164.694 65.1159 166.228 67.3378C168.069 69.3527 168.069 71.9513 163.893 74.2683C146.082 85.2499 128.936 102.289 119.378 121.652C118.007 124.866 117.134 125.525 115.195 122.528L111.22 116.849C107.263 109.013 102.171 101.89 98.1631 94.0544C96.9173 91.6183 95.0975 88.45 93.3676 86.4026C91.7646 84.5252 89.7577 83.0753 87.5132 82.1727C81.0658 79.542 71.2235 82.466 68.9529 89.8752C65.1817 102.183 75.4535 110.989 80.3023 121.264C82.0444 124.014 84.5627 129.817 86.3515 133.011C90.6408 140.668 97.4301 152.025 99.3183 160.637C100.678 166.84 96.9731 180.46 96.3473 187.782C95.323 199.766 95.3666 219.651 97.7903 231.239C95.838 231.256 92.9537 231.289 91.0646 230.895C57.8168 223.978 29.8219 198.481 19.5204 164.51Z" fill="#2A1E1B"/>
<path d="M116.687 123.224C116.709 123.137 116.768 123.093 116.896 123.131L119.138 122.142C119.217 121.978 119.297 121.815 119.378 121.652L115.195 122.528L115.919 123.563C115.936 123.554 115.955 123.547 115.973 123.539L116.687 123.224Z" fill="#2A1E1B"/>
<path d="M258.78 69.7838C278.845 66.8754 298.81 68.0371 318.976 67.9732C331.038 67.9353 343.79 68.4295 355.766 67.2679C355.215 70.7039 355.514 73.9402 355.69 77.416L355.507 76.6367L355.067 76.4407L355.042 75.6733C355.038 77.0487 354.996 78.2474 354.919 79.621L354.357 80.0161C353.651 78.4977 354.98 75.037 354.133 72.5835L353.346 72.3287C352.888 73.5118 352.988 78.3132 352.974 79.9028C352.548 77.6499 352.325 74.3637 350.734 72.6384C348.08 69.7615 282.553 71.3338 274.284 71.1679C269.1 71.0642 263.964 70.047 258.78 69.7838Z" fill="#2A1E1B"/>
</svg>
