<svg width="1910" height="445" viewBox="0 0 1910 445" fill="none" xmlns="http://www.w3.org/2000/svg">
<rect width="75" height="24" rx="12" transform="matrix(1 0 0 -1 281 24)" fill="#00944E"/>
<rect x="20.421" y="292.965" width="167.648" height="32.2098" rx="16.1049" transform="rotate(-8.963 20.421 292.965)" fill="#00944E"/>
<rect width="167.648" height="32.2098" rx="16.1049" transform="matrix(-0.622837 -0.782352 -0.782352 0.622837 171.628 351.109)" fill="#00944E"/>
<rect width="167.648" height="32.2098" rx="16.1049" transform="matrix(0.369396 -0.929272 -0.929272 -0.369396 89.4684 380.264)" fill="#00944E"/>
<rect x="1821.38" y="215.744" width="76.9862" height="14.7911" rx="7.39557" transform="rotate(-8.963 1821.38 215.744)" fill="#F90F60"/>
<rect width="76.9862" height="14.7911" rx="7.39557" transform="matrix(-0.622837 -0.782352 -0.782352 0.622837 1890.81 242.443)" fill="#F90F60"/>
<rect width="76.9862" height="14.7911" rx="7.39557" transform="matrix(0.369396 -0.929272 -0.929272 -0.369396 1853.08 255.832)" fill="#F90F60"/>
<circle cx="1860.5" cy="396.5" r="47.5" fill="#0592C1"/>
<rect x="560.859" y="204" width="173.632" height="166.545" rx="8" transform="rotate(4.18463 560.859 204)" fill="#FF672D"/>
<rect x="1360.26" y="367" width="75.1069" height="72.0414" rx="8" transform="rotate(4.18463 1360.26 367)" fill="#F90F60"/>
</svg>
