<svg width="2221" height="1110" viewBox="0 0 2221 1110" fill="none" xmlns="http://www.w3.org/2000/svg">
<rect width="2221" height="1110" fill="#2A1E1B"/>
<path d="M296.6 637V488H347.8C357.533 488 366.067 489.933 373.4 493.8C380.733 497.533 386.4 502.867 390.4 509.8C394.533 516.6 396.6 524.533 396.6 533.6C396.6 542.667 394.533 550.6 390.4 557.4C386.4 564.2 380.733 569.533 373.4 573.4C366.2 577.133 357.667 579 347.8 579H312.6V637H296.6ZM312.6 564H348.6C355 564 360.6 562.8 365.4 560.4C370.2 557.867 373.933 554.333 376.6 549.8C379.267 545.133 380.6 539.667 380.6 533.4C380.6 527.133 379.267 521.733 376.6 517.2C373.933 512.667 370.2 509.2 365.4 506.8C360.6 504.267 355 503 348.6 503H312.6V564ZM425.116 637V488H441.116V622H507.116V637H425.116ZM515.966 637L570.366 488H587.566L641.966 637H625.166L612.366 600.6H545.766L532.766 637H515.966ZM550.966 585.6H606.766L576.566 500H581.366L550.966 585.6ZM684.572 637V567.8L632.372 488H650.172L695.772 557.4H689.372L734.772 488H752.572L700.572 567.8V637H684.572ZM772.381 637V488H864.381V503H788.381V554.8H858.381V569.8H788.381V637H772.381ZM940.992 639.4C930.459 639.4 921.192 637.2 913.192 632.8C905.192 628.4 898.992 622.4 894.592 614.8C890.192 607.067 887.992 598.267 887.992 588.4V488H903.992V588.4C903.992 595.6 905.526 601.933 908.592 607.4C911.792 612.733 916.126 616.933 921.592 620C927.192 622.933 933.659 624.4 940.992 624.4C948.326 624.4 954.726 622.933 960.192 620C965.792 616.933 970.126 612.733 973.192 607.4C976.392 601.933 977.992 595.6 977.992 588.4V488H993.992V588.4C993.992 598.267 991.792 607.067 987.392 614.8C982.992 622.4 976.792 628.4 968.792 632.8C960.926 637.2 951.659 639.4 940.992 639.4ZM1028.63 637V488H1044.63V622H1110.63V637H1028.63ZM1134.88 637V488H1150.88V622H1216.88V637H1134.88ZM1259.96 637V567.8L1207.76 488H1225.56L1271.16 557.4H1264.76L1310.16 488H1327.96L1275.96 567.8V637H1259.96ZM1407.56 637V503H1366.36V488H1464.36V503H1423.56V637H1407.56ZM1458.74 637L1513.14 488H1530.34L1584.74 637H1567.94L1555.14 600.6H1488.54L1475.54 637H1458.74ZM1493.74 585.6H1549.54L1519.34 500H1524.14L1493.74 585.6ZM1652.85 639.4C1643.39 639.4 1634.79 637.6 1627.05 634C1619.32 630.4 1612.79 625.6 1607.45 619.6C1602.12 613.467 1598.32 606.733 1596.05 599.4L1610.45 594C1613.92 604.133 1619.32 611.867 1626.65 617.2C1633.99 622.4 1642.72 625 1652.85 625C1659.25 625 1664.85 624 1669.65 622C1674.59 619.867 1678.39 616.933 1681.05 613.2C1683.72 609.467 1685.05 605.133 1685.05 600.2C1685.05 592.867 1683.05 587.2 1679.05 583.2C1675.05 579.2 1669.32 576.133 1661.85 574L1635.05 566C1624.52 562.933 1616.39 557.8 1610.65 550.6C1605.05 543.4 1602.25 535.2 1602.25 526C1602.25 518.133 1604.19 511.2 1608.05 505.2C1611.92 499.067 1617.19 494.267 1623.85 490.8C1630.65 487.333 1638.32 485.6 1646.85 485.6C1655.79 485.6 1663.79 487.267 1670.85 490.6C1678.05 493.8 1684.12 498.067 1689.05 503.4C1693.99 508.733 1697.52 514.667 1699.65 521.2L1685.65 526.8C1682.45 518 1677.45 511.333 1670.65 506.8C1663.99 502.267 1656.12 500 1647.05 500C1641.32 500 1636.25 501 1631.85 503C1627.59 505 1624.25 507.867 1621.85 511.6C1619.45 515.333 1618.25 519.733 1618.25 524.8C1618.25 530.933 1620.19 536.467 1624.05 541.4C1627.92 546.2 1633.85 549.8 1641.85 552.2L1665.45 559.2C1677.19 562.667 1686.05 567.667 1692.05 574.2C1698.05 580.733 1701.05 588.933 1701.05 598.8C1701.05 606.8 1698.99 613.867 1694.85 620C1690.85 626 1685.19 630.733 1677.85 634.2C1670.65 637.667 1662.32 639.4 1652.85 639.4ZM1757.75 637V503H1716.55V488H1814.55V503H1773.75V637H1757.75ZM1871.1 637V567.8L1818.9 488H1836.7L1882.3 557.4H1875.9L1921.3 488H1939.1L1887.1 567.8V637H1871.1Z" fill="#FDF2E2"/>
</svg>
