<svg width="398" height="529" viewBox="0 0 398 529" fill="none" xmlns="http://www.w3.org/2000/svg">
<g clip-path="url(#clip0_888_198)">
<rect width="398" height="529" fill="#1D1514"/>
<path d="M198.7 390.6C181.5 390.6 166.2 387 152.8 379.8C139.6 372.6 129.2 362.7 121.6 350.1C114 337.5 110.2 323.2 110.2 307.2V163.5H151V305.1C151 314.3 153 322.6 157 330C161.2 337.4 166.9 343.2 174.1 347.4C181.3 351.4 189.5 353.4 198.7 353.4C208.1 353.4 216.3 351.4 223.3 347.4C230.5 343.2 236.1 337.4 240.1 330C244.3 322.6 246.4 314.3 246.4 305.1V163.5H287.2V307.2C287.2 323.2 283.4 337.5 275.8 350.1C268.2 362.7 257.7 372.6 244.3 379.8C231.1 387 215.9 390.6 198.7 390.6Z" fill="#FDF2E2"/>
<path d="M16.2251 514.338C15.8846 509.894 17.503 506.969 19.0198 502.969C20.0483 500.257 20.904 497.469 22.0799 494.801C22.789 493.192 25.6301 488.406 24.2066 486.83C19.5648 481.689 15.8093 474.565 15.7791 467.327C14.6963 447.929 28.2905 432.583 45.1128 426.936C49.0567 425.612 53.4698 424.138 57.6538 423.966C59.2719 424.048 60.875 424.366 62.4933 424.399C65.0745 424.451 85.5279 423.959 86.3563 424.859C86.853 425.399 86.9226 426.428 87.0554 427.133C87.0599 426.635 87.0286 425.132 87.1717 424.762L87.4171 424.842C87.6817 425.61 87.2667 426.693 87.487 427.168L87.6625 427.045C87.6866 426.615 87.6998 426.24 87.7009 425.809L87.7086 426.049L87.846 426.111L87.9033 426.355C88.034 430.763 87.8188 435.215 87.9308 439.624C88.4041 458.263 86.8247 480.269 71.2506 492.322C63.5829 498.256 49.6109 501.332 40.3964 498.088C46.1439 485.043 53.5054 472.853 62.2901 461.832C63.4965 460.314 65.3751 458.133 66.6628 456.726C68.5058 454.794 70.9868 452.549 72.5152 450.375C74.5123 447.534 72.5339 443.604 69.2852 443.264C65.9885 442.919 62.4957 447.667 60.4442 449.917C56.12 454.695 52.0846 459.753 48.3615 465.061C46.9734 467.071 45.775 469.274 44.2347 471.238C43.5645 472.093 42.7412 473.995 42.1099 475.014C41.2109 476.465 40.1505 478.101 39.3544 479.605C36.2825 485.42 33.4254 491.358 30.7895 497.404C29.1957 501.101 28.0425 505.162 26.3701 508.878C25.6134 510.559 25.2973 512.659 24.4331 514.447C23.3643 516.659 22.0918 517.227 19.7074 516.925C17.9974 516.639 17.1842 515.759 16.2251 514.338Z" fill="#2A1E1B"/>
<path d="M-17.0283 453.617C-17.4037 452.375 -18.1746 450.883 -18.4484 449.652C-21.3994 436.387 -19.8255 422.164 -16.3739 409.174C-15.9274 407.493 -15.4174 405.726 -15.1642 404.008C-11.5423 403.858 -6.70862 405.777 -3.18483 406.754C7.04067 409.587 17.4905 413.696 25.8743 420.608C26.6114 421.216 28.2859 422.504 28.7648 423.2C29.3393 423.831 29.3393 424.644 28.0359 425.369C22.4765 428.807 17.1244 434.14 14.141 440.201C13.7132 441.207 13.4407 441.414 12.8354 440.476L11.5947 438.698C10.3596 436.245 8.77004 434.016 7.51913 431.563C7.13024 430.8 6.56223 429.808 6.02225 429.168C5.52189 428.58 4.89548 428.126 4.19488 427.844C2.1824 427.02 -0.889762 427.935 -1.59852 430.255C-2.77566 434.107 0.430573 436.864 1.94406 440.08C2.48784 440.941 3.27392 442.757 3.83227 443.757C5.17111 446.154 7.29031 449.709 7.8797 452.404C8.30425 454.346 7.14767 458.609 6.95234 460.901C6.6326 464.653 6.64621 470.877 7.40275 474.504C6.79335 474.51 5.89307 474.52 5.30342 474.397C-5.07454 472.231 -13.8128 464.25 -17.0283 453.617Z" fill="#2A1E1B"/>
<path d="M13.3011 440.693C13.3079 440.666 13.3263 440.652 13.3663 440.664L14.0661 440.355C14.0909 440.304 14.1158 440.252 14.141 440.201L12.8354 440.476L13.0614 440.799C13.0669 440.797 13.0728 440.795 13.0783 440.792L13.3011 440.693Z" fill="#2A1E1B"/>
<path d="M57.6538 423.966C63.9169 423.055 70.1489 423.419 76.4435 423.399C80.2085 423.387 84.1888 423.542 87.927 423.178C87.7551 424.254 87.8484 425.267 87.9033 426.355L87.846 426.111L87.7086 426.049L87.7009 425.809C87.6998 426.24 87.6866 426.615 87.6625 427.045L87.487 427.168C87.2667 426.693 87.6817 425.61 87.4171 424.842L87.1717 424.762C87.0286 425.132 87.0599 426.635 87.0554 427.133C86.9226 426.428 86.853 425.399 86.3563 424.859C85.5279 423.959 65.0745 424.451 62.4933 424.399C60.875 424.366 59.2719 424.048 57.6538 423.966Z" fill="#2A1E1B"/>
</g>
<defs>
<clipPath id="clip0_888_198">
<rect width="398" height="529" fill="white"/>
</clipPath>
</defs>
</svg>
