<svg width="398" height="529" viewBox="0 0 398 529" fill="none" xmlns="http://www.w3.org/2000/svg">
<rect width="398" height="529" fill="#1D1514"/>
<path d="M208.406 344.919C215.226 344.747 222.636 344.928 229.506 344.907L315.981 344.905C320.63 344.931 325.27 344.864 329.923 345.001C333.727 345.113 333.008 349.335 332.827 351.99C331.747 367.83 325.225 381.019 313.2 391.479C311.297 393.043 309.601 394.551 307.6 396.031C305.706 397.43 302.629 398.619 301.189 400.314C299.39 402.43 298.554 405.727 296.786 407.871C295.94 408.896 293.814 408.903 292.478 408.908C284.173 408.938 275.872 408.884 267.563 408.948C261.996 409.025 256.428 409.017 250.861 408.924C249.133 408.906 242.762 409.261 241.502 408.168C239.561 406.485 238.705 402.17 236.72 400.199C234.724 398.217 231.848 397.365 229.69 395.563C215.466 384.564 207.557 372.472 205.325 354.412C204.952 351.391 204.517 347.604 206.419 345.172C207.031 345.034 207.772 344.982 208.406 344.919Z" fill="#2A1E1B"/>
<path d="M267.947 287C270.329 286.996 272.702 287.287 275.012 287.866C283.719 289.986 292.141 296.1 298.118 302.505C299.902 304.418 301.733 305.844 303.357 308.064C306.134 311.861 308.848 315.829 311.288 319.835C311.364 320.731 311.426 321.663 310.935 322.46C309.06 325.504 295.014 331.431 291.317 332.791C289.476 333.468 287.48 334.086 285.565 334.515C275.45 336.783 264.097 336.737 255.089 330.991C249.872 327.662 242.871 322.032 240.594 316.126C240.266 315.277 240.159 314.233 239.961 313.338C240.21 313.097 240.298 313.155 240.695 313.098C241.942 313.36 244.773 314.952 246.313 315.532C251.842 317.611 256.692 319.181 262.57 319.916C265.51 320.284 267.175 320.746 270.33 320.363C270.638 320.124 271.221 319.505 271.521 319.201C271.832 317.974 271.863 317.147 271.842 315.904C269.566 314.393 265.687 314.454 262.898 313.998C260.72 313.636 258.559 313.176 256.421 312.62C253.106 311.738 252.972 311.456 249.84 310.189C241.093 306.662 232.834 301.708 226.456 294.672C223.69 291.62 222.714 292.289 223.984 287.687C228.751 285.648 229.322 289.846 232.681 292.566C235.157 294.571 238.315 298.178 241.67 298.672C242.577 298.806 242.843 297.567 243.361 297.091C250.161 290.441 258.55 287.233 267.947 287Z" fill="#2A1E1B"/>
<path d="M177.6 387V288L102.3 163.5H148.8L206.4 260.7H189.9L247.2 163.5H293.7L218.7 287.7V387H177.6Z" fill="#FDF2E2"/>
</svg>
