<svg width="398" height="529" viewBox="0 0 398 529" fill="none" xmlns="http://www.w3.org/2000/svg">
<rect width="398" height="529" fill="#1D1514"/>
<path d="M132.406 141.919C139.226 141.747 146.636 141.928 153.506 141.907L239.981 141.905C244.63 141.931 249.27 141.864 253.923 142.001C257.727 142.113 257.008 146.335 256.827 148.99C255.747 164.83 249.225 178.019 237.2 188.479C235.297 190.043 233.601 191.551 231.6 193.031C229.706 194.43 226.629 195.619 225.189 197.314C223.39 199.43 222.554 202.727 220.786 204.871C219.94 205.896 217.814 205.903 216.478 205.908C208.173 205.938 199.872 205.884 191.563 205.948C185.996 206.025 180.428 206.017 174.861 205.924C173.133 205.906 166.762 206.261 165.502 205.168C163.561 203.485 162.705 199.17 160.72 197.199C158.724 195.217 155.848 194.365 153.69 192.563C139.466 181.564 131.557 169.472 129.325 151.412C128.952 148.391 128.517 144.604 130.419 142.172C131.031 142.034 131.772 141.982 132.406 141.919Z" fill="#2A1E1B"/>
<path d="M191.947 84C194.329 83.9964 196.702 84.2873 199.012 84.8664C207.719 86.9861 216.141 93.0998 222.118 99.5054C223.902 101.418 225.733 102.844 227.357 105.064C230.134 108.861 232.848 112.829 235.288 116.835C235.364 117.731 235.426 118.663 234.935 119.46C233.06 122.504 219.014 128.431 215.317 129.791C213.476 130.468 211.48 131.086 209.565 131.515C199.45 133.783 188.097 133.737 179.089 127.991C173.872 124.662 166.871 119.032 164.594 113.126C164.266 112.277 164.159 111.233 163.961 110.338C164.21 110.097 164.298 110.155 164.695 110.098C165.942 110.36 168.773 111.952 170.313 112.532C175.842 114.611 180.692 116.181 186.57 116.916C189.51 117.284 191.175 117.746 194.33 117.363C194.638 117.124 195.221 116.505 195.521 116.201C195.832 114.974 195.863 114.147 195.842 112.904C193.566 111.393 189.687 111.454 186.898 110.998C184.72 110.636 182.559 110.176 180.421 109.62C177.106 108.738 176.972 108.456 173.84 107.189C165.093 103.662 156.834 98.7078 150.456 91.6716C147.69 88.6203 146.714 89.289 147.984 84.6871C152.751 82.6477 153.322 86.8456 156.681 89.5663C159.157 91.5713 162.315 95.1783 165.67 95.6722C166.577 95.8055 166.843 94.5667 167.361 94.0907C174.161 87.4407 182.55 84.2329 191.947 84Z" fill="#2A1E1B"/>
<path d="M177.6 387V288L102.3 163.5H148.8L206.4 260.7H189.9L247.2 163.5H293.7L218.7 287.7V387H177.6Z" fill="#FDF2E2"/>
</svg>
